<svg xmlns="http://www.w3.org/2000/svg" viewBox="0 0 360 112" width="360" height="112" role="img" aria-label="사이 로고 락업">
  <defs>
    <linearGradient id="lkBody" x1="0.12" y1="0.1" x2="0.9" y2="0.95">
      <stop offset="0" stop-color="#FF6B5E"></stop><stop offset="0.55" stop-color="#B45EE8"></stop><stop offset="1" stop-color="#5B6CFF"></stop>
    </linearGradient>
    <radialGradient id="lkBead" cx="0.35" cy="0.35" r="0.75"><stop offset="0" stop-color="#fff"></stop><stop offset="1" stop-color="#5B6CFF"></stop></radialGradient>
    <radialGradient id="lkGloss" cx="0.4" cy="0.4" r="0.6"><stop offset="0" stop-color="#fff" stop-opacity="0.8"></stop><stop offset="1" stop-color="#fff" stop-opacity="0"></stop></radialGradient>
  </defs>
  <g transform="translate(6,8) scale(0.42)">
    <rect x="98" y="26" width="4" height="28" rx="2" fill="#B45EE8"></rect>
    <circle cx="100" cy="20" r="8" fill="url(#lkBead)"></circle>
    <ellipse cx="100" cy="134" rx="78" ry="86" fill="url(#lkBody)"></ellipse>
    <ellipse cx="72" cy="98" rx="28" ry="19" fill="url(#lkGloss)"></ellipse>
    <circle cx="58" cy="150" r="12" fill="#FF8CA0" opacity="0.5"></circle><circle cx="142" cy="150" r="12" fill="#FF8CA0" opacity="0.5"></circle>
    <ellipse cx="76" cy="128" rx="11" ry="13" fill="#2A2140"></ellipse><ellipse cx="124" cy="128" rx="11" ry="13" fill="#2A2140"></ellipse>
    <circle cx="72" cy="122" r="3.4" fill="#fff"></circle><circle cx="120" cy="122" r="3.4" fill="#fff"></circle>
    <path d="M84 150 Q100 166 116 150" fill="none" stroke="#2A2140" stroke-width="5" stroke-linecap="round"></path>
  </g>
  <text x="110" y="66" font-family="Pretendard, -apple-system, system-ui, sans-serif" font-size="50" font-weight="800" letter-spacing="-2" fill="#211C2B">사이</text>
  <text x="112" y="90" font-family="Pretendard, -apple-system, system-ui, sans-serif" font-size="11" font-weight="700" letter-spacing="2.2" fill="#9A93A8">SITUATION-AWARE AI</text>
</svg>